<?xml version="1.0" encoding="UTF-8" standalone="no"?>
<!-- Created with Inkscape (http://www.inkscape.org/) -->

<svg
   width="752"
   height="758"
   viewBox="0 0 198.96669 200.55416"
   version="1.1"
   id="svg1"
   xmlns:xlink="http://www.w3.org/1999/xlink"
   xmlns="http://www.w3.org/2000/svg"
   xmlns:svg="http://www.w3.org/2000/svg">
  <defs
     id="defs1">
    <linearGradient
       id="linearGradient13">
      <stop
         style="stop-color:#ff0000;stop-opacity:1;"
         offset="0.11987381"
         id="stop13" />
      <stop
         style="stop-color:#5500ff;stop-opacity:1;"
         offset="1"
         id="stop14" />
    </linearGradient>
    <linearGradient
       xlink:href="#linearGradient13"
       id="linearGradient14"
       x1="29.696682"
       y1="31.083368"
       x2="168.53876"
       y2="169.92545"
       gradientUnits="userSpaceOnUse"
       gradientTransform="matrix(0.99959742,0,0,0.99883115,0.6231259,-0.10987733)" />
  </defs>
  <g
     id="g8">
    <path
       id="path13"
       style="-inkscape-font-specification:'Franklin Gothic Demi';baseline-shift:baseline;display:inline;overflow:visible;fill:url(#linearGradient14);stroke:#000000;stroke-width:1.32276;stroke-linecap:round;stroke-dasharray:none;stroke-opacity:1;enable-background:accumulate;stop-color:#000000;stop-opacity:1"
       d="m 145.92781,0.92605651 c -14.15743,0.023062 -24.66711,3.79004269 -31.62201,7.60458969 -6.95491,3.8145408 -10.55635,7.8657608 -10.55635,7.8657608 -1.14962,1.307912 -1.02009,3.299524 0.28929,4.447753 1.30932,1.148361 3.30248,1.018236 4.45114,-0.290597 0,0 2.70132,-3.12516 8.85172,-6.498459 6.15039,-3.373299 15.54698,-6.8044416 28.59603,-6.8256983 24.05104,-0.039175 37.63113,13.0196213 37.63113,13.0196213 1.25927,1.202917 3.25611,1.157616 4.45944,-0.101167 1.20328,-1.258857 1.15702,-3.25419 -0.10332,-4.456011 0,0 -15.61686,-14.8087613 -41.99707,-14.76579249 z m 0,16.87482249 c -23.75205,0.04375 -35.33554,14.627468 -35.33554,14.627468 -0.94498,1.216917 -0.72364,2.968935 0.49435,3.913012 1.21771,0.944389 2.97107,0.723453 3.91602,-0.49345 0,0 9.40125,-12.429737 30.93499,-12.469401 19.82065,-0.03651 31.08327,12.178803 31.08327,12.178803 1.04697,1.130322 2.81276,1.198495 3.94391,0.152267 1.13102,-1.046331 1.19903,-2.810742 0.15186,-3.940884 0,0 -13.03747,-14.008616 -35.18886,-13.967815 z m 0,17.469962 c -17.70231,0.0375 -26.25292,12.459595 -26.25292,12.459595 -0.68184,1.009024 -0.41614,2.379302 0.59351,3.060831 1.01021,0.681015 2.38163,0.414797 3.06319,-0.594616 0,0 6.92071,-10.481995 22.60604,-10.515219 14.41267,-0.03053 22.70575,10.261267 22.70575,10.261267 0.76409,0.949734 2.15433,1.1 3.10399,0.335505 0.94864,-0.763817 1.09826,-2.151338 0.3342,-3.099544 0,0 -9.62185,-11.942835 -26.15376,-11.907819 z M 23.059743,54.483362 c -2.383983,-0.0096 -4.635408,0.160918 -6.700767,0.548162 -5.947499,1.115123 -14.7946846,10.511605 -14.7946846,10.511605 0,0 23.0540206,4.589898 23.5988696,20.146254 0.794609,22.687367 -6.676489,30.506147 -6.676489,30.506147 0,0 15.718274,-10.56251 24.543136,-5.11928 6.531486,4.02868 11.159682,20.45596 11.159682,20.45596 0,0 8.592262,-13.3844 15.546793,-14.04318 12.891434,-1.22116 33.199597,20.15659 33.199597,20.15659 0,0 -0.59707,-4.04449 2.05227,-5.71184 0.93825,-0.59048 1.77611,-1.0559 2.55696,-1.49687 6.2357,23.06377 12.47139,46.12753 18.70709,69.19129 h 32.61639 L 197.8376,55.847573 H 172.33263 L 145.49959,158.65334 119.61548,55.847573 H 87.378229 L 104.67151,119.8097 c -1.99987,-0.67301 -4.3918,-2.15273 -7.233863,-4.92314 -11.59045,-11.29827 -15.876873,-43.417395 -15.876873,-43.417395 0,0 -35.455861,-16.892846 -58.501031,-16.985803 z" />
  </g>
</svg>
